# Alias OBJ Model File
# Exported from SketchUp, (c) 2000-2012 Trimble Navigation Limited
# File units = meters

mtllib hole.mtl

g Mesh1 Component1 Model

usemtl FrontColor
v 1.49634 -4.65292 -7.25763
vt -157.111 152.824
vn 0 7.91034e-16 -1
v 0.2964 -4.67614 -7.25763
vt -109.869 151.909
v -0.868661 -4.38801 -7.25763
vt -64.0003 163.253
v -1.91945 -3.80815 -7.25763
vt -22.6307 186.082
v -2.78435 -2.97609 -7.25763
vt 11.4207 218.841
v -3.40444 -1.94853 -7.25763
vt 35.8333 259.296
v -3.73743 -0.795486 -7.25763
vt 48.9435 304.691
v -3.76066 0.404452 -7.25763
vt 49.8578 351.933
v -3.47252 1.56951 -7.25763
vt 38.5139 397.801
v -2.89267 2.6203 -7.25763
vt 15.6849 439.171
v -2.0606 3.48521 -7.25763
vt -17.0735 473.222
v -1.03304 4.10529 -7.25763
vt -57.5288 497.635
v 0.120002 4.43829 -7.25763
vt -102.924 510.745
v 1.31994 4.46151 -7.25763
vt -150.166 511.659
v 2.485 4.17337 -7.25763
vt -196.034 500.316
v 3.53579 3.59352 -7.25763
vt -237.404 477.487
v 4.40069 2.76146 -7.25763
vt -271.455 444.728
v 5.02077 1.73389 -7.25763
vt -295.868 404.273
v 5.35377 0.580851 -7.25763
vt -308.978 358.878
v 5.377 -0.619087 -7.25763
vt -309.892 311.636
v 5.08886 -1.78415 -7.25763
vt -298.548 265.767
v 4.50901 -2.83494 -7.25763
vt -275.719 224.398
v 3.67694 -3.69984 -7.25763
vt -242.961 190.346
v 2.64938 -4.31992 -7.25763
vt -202.506 165.934
f 1/1/1 2/2/1 3/3/1 4/4/1 5/5/1 6/6/1 7/7/1 8/8/1 9/9/1 10/10/1 11/11/1 12/12/1 13/13/1 14/14/1 15/15/1 16/16/1 17/17/1 18/18/1 19/19/1 20/20/1 21/21/1 22/22/1 23/23/1 24/24/1 

usemtl Color_009
vn -0 -7.91034e-16 1
f 24/24/2 23/23/2 22/22/2 21/21/2 20/20/2 19/19/2 18/18/2 17/17/2 16/16/2 15/15/2 14/14/2 13/13/2 12/12/2 11/11/2 10/10/2 9/9/2 8/8/2 7/7/2 6/6/2 5/5/2 4/4/2 3/3/2 2/2/2 1/1/2 

