# Alias OBJ Model File
# Exported from SketchUp, (c) 2000-2012 Trimble Navigation Limited
# File units = meters

mtllib hole_horizontal.mtl

g Mesh1 Component1 Model

usemtl _
v 1.49634 3.72631 -1.44382e-15
vt -157.111 152.824
vn 0 0 -1
v 0.2964 3.70309 -1.44382e-15
vt -109.869 151.909
v -0.868661 3.99122 -1.44382e-15
vt -64.0003 163.253
v -1.91945 4.57108 -1.44382e-15
vt -22.6307 186.082
v -2.78435 5.40314 -1.44382e-15
vt 11.4207 218.841
v -3.40444 6.43071 -1.44382e-15
vt 35.8333 259.296
v -3.73743 7.58375 -1.44382e-15
vt 48.9435 304.691
v -3.76066 8.78368 -1.44382e-15
vt 49.8578 351.933
v -3.47252 9.94874 -1.44382e-15
vt 38.5139 397.801
v -2.89267 10.9995 -1.44382e-15
vt 15.6849 439.171
v -2.0606 11.8644 -1.44382e-15
vt -17.0735 473.222
v -1.03304 12.4845 -1.44382e-15
vt -57.5288 497.635
v 0.120002 12.8175 -1.44382e-15
vt -102.924 510.745
v 1.31994 12.8407 -1.44382e-15
vt -150.166 511.659
v 2.485 12.5526 -1.44382e-15
vt -196.034 500.316
v 3.53579 11.9727 -1.44382e-15
vt -237.404 477.487
v 4.40069 11.1407 -1.44382e-15
vt -271.455 444.728
v 5.02077 10.1131 -1.44382e-15
vt -295.868 404.273
v 5.35377 8.96008 -1.44382e-15
vt -308.978 358.878
v 5.377 7.76014 -1.44382e-15
vt -309.892 311.636
v 5.08886 6.59508 -1.44382e-15
vt -298.548 265.767
v 4.50901 5.5443 -1.44382e-15
vt -275.719 224.398
v 3.67694 4.67939 -1.44382e-15
vt -242.961 190.346
v 2.64938 4.05931 -1.44382e-15
vt -202.506 165.934
f 1/1/1 2/2/1 3/3/1 4/4/1 5/5/1 6/6/1 7/7/1 8/8/1 9/9/1 10/10/1 11/11/1 12/12/1 13/13/1 14/14/1 15/15/1 16/16/1 17/17/1 18/18/1 19/19/1 20/20/1 21/21/1 22/22/1 23/23/1 24/24/1 

vn -0 -0 1
f 24/24/2 23/23/2 22/22/2 21/21/2 20/20/2 19/19/2 18/18/2 17/17/2 16/16/2 15/15/2 14/14/2 13/13/2 12/12/2 11/11/2 10/10/2 9/9/2 8/8/2 7/7/2 6/6/2 5/5/2 4/4/2 3/3/2 2/2/2 1/1/2 

